<svg width="0" height="0" class="hidden">
  <symbol fill="none" xmlns="http://www.w3.org/2000/svg" viewBox="0 0 48 48" id="phone2">
    <path fill-rule="evenodd" clip-rule="evenodd" d="M24 0C10.7452 0 0 10.7452 0 24C0 37.2548 10.7452 48 24 48C37.2548 48 48 37.2548 48 24C48 10.7452 37.2548 0 24 0ZM16.7878 12C16.8588 12.0563 16.9151 12.0563 16.9714 12.049C17.2629 12.0245 17.5127 12.0955 17.6743 12.3625C17.7029 12.4088 17.7314 12.4551 17.76 12.5014C18.0941 13.0429 18.4289 13.5854 18.747 14.1404C18.9773 14.5417 19.197 14.9495 19.4169 15.3577C19.5782 15.657 19.7396 15.9566 19.9054 16.254C19.9695 16.3745 20.0497 16.488 20.1299 16.6016C20.1752 16.6657 20.2205 16.7298 20.2629 16.7952C20.3652 16.9579 20.463 17.125 20.5586 17.2881L20.5739 17.3144C20.7797 17.7038 20.7699 18.0956 20.4637 18.4066C20.1415 18.7361 19.7951 19.0482 19.4495 19.3597C19.3275 19.4696 19.2056 19.5794 19.0849 19.6899C18.9349 19.8276 18.7826 19.9632 18.6304 20.0986C18.3901 20.3124 18.1501 20.526 17.9192 20.7479C17.6253 21.032 17.5494 21.3871 17.7478 21.7618C17.7661 21.7961 17.7844 21.8305 17.8028 21.8648C18.0904 22.4035 18.3777 22.9415 18.6931 23.4688C19.9372 25.5431 21.5266 27.3064 23.5348 28.6656C24.3087 29.1921 25.1144 29.6746 25.9275 30.135C26.694 30.5685 26.9928 30.495 27.5879 29.8313C27.9023 29.4822 28.2103 29.13 28.5187 28.7773C28.7533 28.5089 28.9882 28.2402 29.2263 27.9725C29.3586 27.8231 29.5178 27.6909 29.6721 27.5635C29.9855 27.299 30.3284 27.2696 30.6884 27.4509C30.711 27.4619 30.7339 27.4726 30.7569 27.4834C30.8363 27.5207 30.9164 27.5582 30.9847 27.6076C31.6233 28.0645 32.3123 28.4315 33.0004 28.7981C33.3414 28.9798 33.6823 29.1614 34.0166 29.3538C34.3613 29.5519 34.7001 29.7589 35.0379 29.9654C35.2305 30.0831 35.4229 30.2006 35.6158 30.3162C35.9024 30.4852 36.0175 30.7326 35.9979 31.073C35.944 32.0305 35.7848 32.971 35.2289 33.7791C34.9962 34.1147 34.6656 34.4085 34.3325 34.6461C33.4093 35.2926 32.3782 35.6918 31.2811 35.9367C30.2843 36.1596 29.29 36.0788 28.3349 35.78C26.4908 35.2118 24.6736 34.5604 23.0009 33.5734C21.4825 32.6746 20.1013 31.5897 18.8229 30.3775C17.2041 28.837 15.7592 27.157 14.591 25.2443C13.8293 24.0027 13.2857 22.6655 12.7934 21.3014C12.4946 20.4785 12.2007 19.663 12.0685 18.7911C11.9167 17.8042 12.022 16.854 12.3379 15.9184C12.622 15.0735 12.9771 14.2653 13.5134 13.5429C13.9346 12.9821 14.4612 12.5706 15.142 12.3869C15.5267 12.2852 15.9138 12.198 16.3008 12.1108C16.4632 12.0742 16.6256 12.0376 16.7878 12Z" fill="white"></path>
  </symbol>
  <symbol fill="none" xmlns="http://www.w3.org/2000/svg" viewBox="0 0 48 48" id="whatsapp2">
    <path fill-rule="evenodd" clip-rule="evenodd" d="M0 24C0 37.2548 10.7452 48 24 48C37.2548 48 48 37.2548 48 24C48 10.7452 37.2548 0 24 0C10.7452 0 0 10.7452 0 24ZM39.0621 23.0815C39.059 30.9483 32.6595 37.3493 24.7911 37.3525H24.7852C22.3967 37.3517 20.0498 36.7524 17.9653 35.6155L10.4 37.6L12.4246 30.2048C11.1757 28.0405 10.5186 25.5855 10.5196 23.0702C10.5228 15.2017 16.9248 8.8 24.7909 8.8C28.6086 8.80165 32.1918 10.2879 34.8862 12.9854C37.5806 15.6828 39.0637 19.2683 39.0621 23.0815Z" fill="white"></path>
    <path fill-rule="evenodd" clip-rule="evenodd" d="M13.8265 34.2096L18.3159 33.0319L18.749 33.289C20.5702 34.3697 22.6578 34.9415 24.7863 34.9424H24.7911C31.3289 34.9424 36.6499 29.6212 36.6526 23.0807C36.6538 19.9112 35.4212 16.9311 33.1817 14.689C30.9422 12.4469 27.964 11.2115 24.7958 11.2104C18.2529 11.2104 12.9318 16.5311 12.9292 23.0711C12.9283 25.3124 13.5554 27.4951 14.7428 29.3836L15.0248 29.8324L13.8265 34.2096ZM31.4924 26.1541C31.7411 26.2743 31.9091 26.3554 31.9808 26.4751C32.0699 26.6238 32.0699 27.3378 31.7729 28.1709C31.4756 29.0038 30.0511 29.764 29.3659 29.8663C28.7516 29.9582 27.9742 29.9965 27.12 29.725C26.602 29.5607 25.9379 29.3413 25.0871 28.9739C21.7442 27.5304 19.4851 24.2904 19.0581 23.678C19.0282 23.6351 19.0072 23.6051 18.9956 23.5896L18.9927 23.5857C18.804 23.3339 17.5395 21.6468 17.5395 19.9008C17.5395 18.2583 18.3464 17.3973 18.7178 17.001C18.7432 16.9739 18.7666 16.9489 18.7876 16.926C19.1144 16.569 19.5008 16.4798 19.7385 16.4798C19.9762 16.4798 20.2141 16.482 20.4219 16.4924C20.4475 16.4937 20.4742 16.4935 20.5018 16.4934C20.7096 16.4921 20.9686 16.4906 21.2242 17.1045C21.3225 17.3408 21.4664 17.691 21.6181 18.0603C21.9249 18.8074 22.264 19.6328 22.3236 19.7522C22.4128 19.9307 22.4722 20.1389 22.3534 20.377C22.3355 20.4127 22.319 20.4464 22.3032 20.4785C22.214 20.6608 22.1483 20.7949 21.9968 20.9718C21.9372 21.0414 21.8756 21.1163 21.814 21.1913C21.6914 21.3407 21.5687 21.4901 21.4619 21.5965C21.2834 21.7743 21.0975 21.9673 21.3055 22.3243C21.5135 22.6813 22.2292 23.8489 23.2893 24.7945C24.4288 25.8109 25.4192 26.2405 25.9212 26.4583C26.0192 26.5008 26.0986 26.5352 26.1569 26.5644C26.5133 26.7429 26.7214 26.7131 26.9294 26.4751C27.1374 26.2372 27.8208 25.4339 28.0585 25.0769C28.2961 24.7201 28.534 24.7795 28.8608 24.8985C29.1877 25.0176 30.9408 25.8801 31.2974 26.0586C31.367 26.0935 31.4321 26.1249 31.4924 26.1541Z" fill="white"></path>
  </symbol>
  <symbol fill="none" xmlns="http://www.w3.org/2000/svg" viewBox="0 0 48 48" id="instagram2">
    <path fill-rule="evenodd" clip-rule="evenodd" d="M24 0C10.7452 0 0 10.7452 0 24C0 37.2548 10.7452 48 24 48C37.2548 48 48 37.2548 48 24C48 10.7452 37.2548 0 24 0ZM18.7233 11.2773C20.0886 11.2152 20.5249 11.2 24.0012 11.2H23.9972C27.4746 11.2 27.9092 11.2152 29.2746 11.2773C30.6373 11.3397 31.5679 11.5555 32.384 11.872C33.2266 12.1987 33.9386 12.636 34.6506 13.348C35.3627 14.0595 35.8 14.7736 36.128 15.6155C36.4427 16.4294 36.6587 17.3595 36.7227 18.7222C36.784 20.0876 36.8 20.5238 36.8 24.0001C36.8 27.4764 36.784 27.9116 36.7227 29.277C36.6587 30.6391 36.4427 31.5695 36.128 32.3837C35.8 33.2253 35.3627 33.9394 34.6506 34.6509C33.9394 35.3629 33.2264 35.8013 32.3848 36.1283C31.5703 36.4448 30.6391 36.6605 29.2765 36.7229C27.9111 36.7851 27.4762 36.8003 23.9996 36.8003C20.5236 36.8003 20.0876 36.7851 18.7222 36.7229C17.3598 36.6605 16.4294 36.4448 15.615 36.1283C14.7736 35.8013 14.0595 35.3629 13.3483 34.6509C12.6365 33.9394 12.1992 33.2253 11.872 32.3834C11.5557 31.5695 11.34 30.6394 11.2773 29.2767C11.2155 27.9114 11.2 27.4764 11.2 24.0001C11.2 20.5238 11.216 20.0873 11.2771 18.7219C11.3384 17.3598 11.5544 16.4294 11.8717 15.6152C12.1997 14.7736 12.6371 14.0595 13.3491 13.348C14.0606 12.6363 14.7747 12.1989 15.6166 11.872C16.4305 11.5555 17.3606 11.3397 18.7233 11.2773Z" fill="white"></path>
    <path fill-rule="evenodd" clip-rule="evenodd" d="M22.853 13.5067C23.0759 13.5064 23.3158 13.5065 23.5746 13.5066L24.0013 13.5067C27.4189 13.5067 27.824 13.519 29.1736 13.5803C30.4216 13.6374 31.0989 13.8459 31.5501 14.0211C32.1475 14.2531 32.5733 14.5305 33.0211 14.9785C33.4691 15.4265 33.7464 15.8532 33.979 16.4505C34.1542 16.9012 34.363 17.5785 34.4198 18.8265C34.4811 20.1759 34.4944 20.5812 34.4944 23.9972C34.4944 27.4133 34.4811 27.8186 34.4198 29.168C34.3627 30.416 34.1542 31.0933 33.979 31.544C33.747 32.1413 33.4691 32.5667 33.0211 33.0144C32.5731 33.4624 32.1477 33.7398 31.5501 33.9718C31.0995 34.1478 30.4216 34.3558 29.1736 34.4128C27.8242 34.4742 27.4189 34.4875 24.0013 34.4875C20.5834 34.4875 20.1783 34.4742 18.8289 34.4128C17.5809 34.3552 16.9036 34.1467 16.4521 33.9715C15.8548 33.7395 15.4281 33.4621 14.9801 33.0141C14.5321 32.5661 14.2548 32.1405 14.0222 31.5429C13.847 31.0923 13.6382 30.4149 13.5814 29.1669C13.5201 27.8176 13.5078 27.4122 13.5078 23.994C13.5078 20.5759 13.5201 20.1727 13.5814 18.8233C13.6385 17.5753 13.847 16.898 14.0222 16.4468C14.2542 15.8494 14.5321 15.4228 14.9801 14.9748C15.4281 14.5268 15.8548 14.2494 16.4521 14.0169C16.9033 13.8409 17.5809 13.6329 18.8289 13.5755C20.0097 13.5222 20.4674 13.5062 22.853 13.5035V13.5067ZM30.8339 15.6321C29.9859 15.6321 29.2978 16.3193 29.2978 17.1676C29.2978 18.0156 29.9859 18.7036 30.8339 18.7036C31.6819 18.7036 32.3699 18.0156 32.3699 17.1676C32.3699 16.3196 31.6819 15.6316 30.8339 15.6316V15.6321ZM17.4279 24.0002C17.4279 20.3701 20.3709 17.4269 24.001 17.4268C27.6312 17.4268 30.5736 20.37 30.5736 24.0002C30.5736 27.6304 27.6314 30.5723 24.0013 30.5723C20.3711 30.5723 17.4279 27.6304 17.4279 24.0002Z" fill="white"></path>
    <path d="M24.0011 19.7334C26.3574 19.7334 28.2678 21.6436 28.2678 24.0001C28.2678 26.3564 26.3574 28.2668 24.0011 28.2668C21.6445 28.2668 19.7344 26.3564 19.7344 24.0001C19.7344 21.6436 21.6445 19.7334 24.0011 19.7334Z" fill="white"></path>
  </symbol>
  <symbol fill="none" xmlns="http://www.w3.org/2000/svg" viewBox="0 0 48 48" id="mail2">
    <g id="Mail_ru_white">
      <g id="Mail.ru">
        <path id="Combined Shape" fill-rule="evenodd" clip-rule="evenodd" d="M24 0C10.7452 0 0 10.7452 0 24C0 37.2548 10.7452 48 24 48C37.2548 48 48 37.2548 48 24C48 10.7452 37.2548 0 24 0ZM10 23.9603C10 16.2626 16.2802 10 23.9998 10C31.7194 10 37.9997 16.2626 37.9997 23.9603C37.9997 25.0508 37.9087 25.9336 37.7048 26.8197L37.7018 26.8344C37.7013 26.837 37.6001 27.2455 37.5442 27.4237C37.1982 28.5272 36.5718 29.4463 35.7325 30.0815C34.9186 30.6977 33.9094 31.0371 32.891 31.0371C32.7652 31.0371 32.6385 31.032 32.5144 31.0221C31.0682 30.9063 29.7966 30.1474 29.0168 28.9373C27.6757 30.282 25.8964 31.0218 23.9998 31.0218C20.0951 31.0218 16.9184 27.854 16.9184 23.9603C16.9184 20.0666 20.0951 16.8989 23.9998 16.8989C27.9045 16.8989 31.0812 20.0666 31.0812 23.9603V26.2366C31.087 27.5648 31.9808 28.1077 32.7444 28.1691C33.5041 28.2276 34.5152 27.7863 34.8674 26.3461C35.0411 25.5562 35.1294 24.7533 35.1294 23.9603C35.1294 17.8407 30.1367 12.8621 23.9998 12.8621C17.8629 12.8621 12.8703 17.8407 12.8703 23.9603C12.8703 30.0798 17.8629 35.0585 23.9998 35.0585C26.136 35.0585 28.2136 34.4501 30.0079 33.2991L30.0401 33.2784L31.9261 35.465L31.8856 35.4926C29.5549 37.0811 26.828 37.9207 23.9998 37.9207C16.2802 37.9207 10 31.6581 10 23.9603Z" fill="white"></path>
        <path id="Fill-5-path" fill-rule="evenodd" clip-rule="evenodd" d="M28.211 23.9602C28.211 26.2757 26.3219 28.1595 23.9999 28.1595C21.6778 28.1595 19.7888 26.2757 19.7888 23.9602C19.7888 21.6448 21.6778 19.7611 23.9999 19.7611C26.3219 19.7611 28.211 21.6448 28.211 23.9602Z" fill="white"></path>
      </g>
    </g>
  </symbol>
</svg>